<svg width="271" height="201" viewBox="0 0 271 201" fill="none" xmlns="http://www.w3.org/2000/svg">
<path fill-rule="evenodd" clip-rule="evenodd" d="M226.16 4.37638C226.838 4.37638 227.433 4.82555 227.62 5.47711L229.265 11.2365C229.985 13.7573 231.956 15.7278 234.477 16.4482L240.236 18.0937C240.888 18.2799 241.337 18.8752 241.337 19.5529C241.337 20.2305 240.888 20.8259 240.236 21.012L234.477 22.6576C231.956 23.3779 229.985 25.3485 229.265 27.8694L227.62 33.6285C227.433 34.2801 226.838 34.7293 226.16 34.7293C225.483 34.7293 224.887 34.2801 224.701 33.6285L223.056 27.8694C222.335 25.3484 220.365 23.3779 217.844 22.6576L212.085 21.012C211.433 20.8259 210.984 20.2305 210.984 19.5529C210.984 18.8752 211.433 18.2799 212.085 18.0937L217.844 16.4482C220.365 15.7278 222.335 13.7573 223.056 11.2365L224.701 5.47711C224.887 4.82558 225.483 4.37638 226.16 4.37638Z" fill="white"/>
<path fill-rule="evenodd" clip-rule="evenodd" d="M16.3748 55.8448C17.0989 55.8448 17.7352 56.3248 17.9341 57.021L19.6924 63.1753C20.4622 65.8691 22.5679 67.9747 25.2617 68.7445L31.4158 70.5028C32.1121 70.7018 32.5921 71.3379 32.5921 72.0621C32.5921 72.7862 32.1121 73.4224 31.4158 73.6213L25.2614 75.3797C22.5679 76.1495 20.4622 78.2551 19.6924 80.9489L17.9341 87.1031C17.7352 87.7994 17.0988 88.2794 16.3748 88.2794C15.6507 88.2794 15.0144 87.7993 14.8155 87.1031L13.0571 80.9489C12.2874 78.2551 10.1818 76.1495 7.48803 75.3797L1.33368 73.6213C0.63746 73.4224 0.157471 72.7862 0.157471 72.0621C0.157471 71.3379 0.63746 70.7018 1.33368 70.5028L7.48803 68.7445C10.1818 67.9747 12.2874 65.8691 13.0571 63.1753L14.8155 57.021C15.0144 56.3248 15.6508 55.8448 16.3748 55.8448Z" fill="white"/>
<path fill-rule="evenodd" clip-rule="evenodd" d="M243.593 39.0728C244.4 39.0728 245.103 39.6216 245.298 40.4039L245.905 42.8301C246.456 45.0338 248.176 46.7545 250.38 47.3054L252.806 47.912C253.589 48.1075 254.137 48.8105 254.137 49.6168C254.137 50.4232 253.589 51.1261 252.806 51.3217L250.38 51.9283C248.176 52.4792 246.456 54.1998 245.905 56.4035L245.298 58.8297C245.103 59.6121 244.4 60.1609 243.593 60.1609C242.787 60.1609 242.084 59.6121 241.889 58.8297L241.282 56.4035C240.731 54.1998 239.011 52.4792 236.807 51.9283L234.381 51.3217C233.598 51.1261 233.049 50.4232 233.049 49.6168C233.049 48.8105 233.598 48.1075 234.381 47.912L236.807 47.3054C239.011 46.7545 240.731 45.0338 241.282 42.8301L241.889 40.4039C242.084 39.6216 242.787 39.0728 243.593 39.0728Z" fill="white"/>
<path fill-rule="evenodd" clip-rule="evenodd" d="M262.936 84.6348C263.63 84.6348 264.246 85.079 264.466 85.7374L265.314 88.2806C265.635 89.2436 266.39 89.9992 267.353 90.3202L269.897 91.1681C270.555 91.3876 270.999 92.0038 270.999 92.6979C270.999 93.392 270.555 94.0082 269.897 94.2278L267.353 95.0756C266.39 95.3966 265.635 96.1522 265.314 97.1152L264.466 99.6585C264.246 100.317 263.63 100.761 262.936 100.761C262.242 100.761 261.626 100.317 261.406 99.6585L260.558 97.1152C260.237 96.1522 259.482 95.3966 258.519 95.0756L255.976 94.2278C255.317 94.0082 254.873 93.392 254.873 92.6979C254.873 92.0038 255.317 91.3876 255.976 91.1681L258.519 90.3202C259.482 89.9992 260.237 89.2437 260.558 88.2806L261.406 85.7374C261.626 85.079 262.242 84.6348 262.936 84.6348Z" fill="white"/>
<path fill-rule="evenodd" clip-rule="evenodd" d="M31.5547 33.1126C32.3697 33.1126 33.0934 33.6342 33.3512 34.4073L34.3467 37.3938C34.7237 38.5247 35.6109 39.4119 36.7418 39.7889L39.7283 40.7844C40.5014 41.0422 41.023 41.7659 41.023 42.5809C41.023 43.3959 40.5014 44.1195 39.7283 44.3773L36.7418 45.3729C35.6109 45.7498 34.7237 46.6371 34.3467 47.768L33.3512 50.7544C33.0934 51.5275 32.3697 52.0492 31.5547 52.0492C30.7397 52.0492 30.0161 51.5276 29.7583 50.7544L28.7627 47.768C28.3858 46.6371 27.4985 45.7499 26.3676 45.3729L23.3812 44.3773C22.6081 44.1195 22.0864 43.3959 22.0864 42.5809C22.0864 41.7659 22.608 41.0422 23.3812 40.7844L26.3676 39.7889C27.4985 39.4119 28.3857 38.5247 28.7627 37.3938L29.7583 34.4073C30.0161 33.6342 30.7397 33.1126 31.5547 33.1126Z" fill="white"/>
<path d="M47.5804 20.2094C49.6498 20.2094 51.3274 18.5318 51.3274 16.4623C51.3274 14.3929 49.6498 12.7152 47.5804 12.7152C45.5109 12.7152 43.8333 14.3929 43.8333 16.4623C43.8333 18.5318 45.5109 20.2094 47.5804 20.2094Z" fill="white"/>
<path d="M254.138 133.558C256.207 133.558 257.885 131.881 257.885 129.811C257.885 127.742 256.207 126.064 254.138 126.064C252.068 126.064 250.39 127.742 250.39 129.811C250.39 131.881 252.068 133.558 254.138 133.558Z" fill="white"/>
<path d="M236.592 107.468C235.839 106.716 235.463 105.666 235.504 104.601C235.554 103.329 235.578 102.054 235.578 100.771C235.578 45.6333 190.716 0.771362 135.578 0.771362C80.4404 0.771362 35.5784 45.6333 35.5784 100.771C35.5784 102.054 35.6031 103.329 35.6526 104.601C35.6938 105.666 35.3175 106.716 34.5648 107.468C32.5541 109.471 31.4828 112.363 31.9058 115.39C33.3809 125.919 36.4409 136.115 41.0035 145.705C42.3247 148.474 44.8271 150.3 47.6207 150.863C48.6535 151.072 49.549 151.726 50.0956 152.627C67.6647 181.469 99.4103 200.771 135.578 200.771C171.746 200.771 203.492 181.469 221.061 152.627C221.608 151.726 222.503 151.072 223.536 150.863C226.33 150.3 228.832 148.474 230.153 145.705C234.716 136.115 237.776 125.919 239.251 115.39C239.674 112.363 238.603 109.471 236.592 107.468ZM226.173 103.373C226.137 104.609 225.522 105.754 224.517 106.474C222.503 107.916 221.061 110.146 220.693 112.794C219.484 121.428 216.979 129.792 213.235 137.651C212.093 140.052 212.062 142.697 212.936 144.999C213.375 146.155 213.255 147.449 212.601 148.501C196.592 174.239 168.055 191.405 135.578 191.405C103.102 191.405 74.5648 174.239 58.556 148.501C57.9023 147.449 57.7814 146.155 58.2209 144.999C59.0944 142.697 59.0642 140.052 57.9215 137.651C54.1775 129.792 51.6723 121.428 50.4637 112.794C50.0956 110.152 48.6535 107.919 46.6401 106.479C45.6347 105.76 45.0194 104.614 44.9837 103.378C44.959 102.513 44.9452 101.642 44.9452 100.771C44.9452 50.7947 85.6017 10.1382 135.578 10.1382C185.555 10.1382 226.212 50.7947 226.212 100.771C226.212 101.642 226.198 102.51 226.173 103.373Z" fill="white"/>
<path fill-rule="evenodd" clip-rule="evenodd" d="M208.846 115.602C208.61 114.33 207.387 113.489 206.118 113.726L196.422 115.525C196.455 114.824 196.468 114.124 196.468 113.418C196.468 107.498 195.411 101.801 193.447 96.467C196.993 86.386 197.949 74.7117 195.592 62.7628C194.362 56.5219 192.329 50.6958 189.648 45.4191C176.999 47.7924 165.736 53.9371 157.152 62.598C150.45 60.3264 143.176 59.0848 135.578 59.0848C127.981 59.0848 120.707 60.3264 114.004 62.598C105.42 53.9371 94.1583 47.7924 81.5089 45.4191C78.828 50.6958 76.7953 56.5219 75.5647 62.7628C73.2079 74.7117 74.1638 86.386 77.71 96.467C75.746 101.801 74.6884 107.498 74.6884 113.418C74.6884 114.124 74.7022 114.824 74.7351 115.525L65.0387 113.726C63.7696 113.489 62.5473 114.33 62.311 115.602C62.0748 116.874 62.9126 118.096 64.1844 118.332L75.1829 120.373C75.3916 121.829 75.6636 123.265 76.0014 124.683L68.2058 125.735C66.923 125.908 66.0248 127.089 66.1979 128.369C66.3572 129.545 67.3625 130.399 68.5162 130.399C68.6206 130.399 68.7277 130.391 68.8321 130.377L77.309 129.232C77.8418 130.797 78.4517 132.33 79.1329 133.833L71.3208 138.019C70.1808 138.632 69.7523 140.049 70.3621 141.189C70.7851 141.977 71.5927 142.428 72.4278 142.428C72.8013 142.428 73.1804 142.337 73.532 142.147L81.2672 138.005C85.2227 144.949 90.8043 151.031 97.5644 155.857C91.2136 159.412 85.588 163.829 80.9238 168.916C95.8888 180.936 114.894 188.125 135.578 188.125C156.262 188.125 175.268 180.936 190.233 168.916C185.569 163.829 179.943 159.412 173.592 155.857C180.352 151.031 185.934 144.949 189.89 138.005L197.625 142.147C197.976 142.337 198.355 142.428 198.729 142.428C199.564 142.428 200.372 141.977 200.795 141.189C201.405 140.049 200.976 138.631 199.836 138.019L192.024 133.833C192.705 132.33 193.315 130.797 193.848 129.232L202.325 130.377C202.429 130.391 202.536 130.399 202.641 130.399C203.794 130.399 204.8 129.545 204.959 128.369C205.132 127.089 204.234 125.908 202.951 125.735L195.155 124.683C195.493 123.265 195.765 121.829 195.974 120.373L206.972 118.332C208.244 118.096 209.082 116.874 208.846 115.602ZM184.44 56.4945C185.096 59.104 185.621 61.8069 186.014 64.5758C186.937 71.0996 187.038 77.5218 186.44 83.5292C186.418 83.4962 186.393 83.4633 186.365 83.4331C186.132 83.1172 185.896 82.804 185.654 82.4936C185.376 82.1393 185.096 81.7822 184.805 81.4306C184.679 81.2768 184.547 81.1175 184.418 80.9636C183.967 80.4197 183.503 79.8868 183.025 79.3622C182.893 79.2166 182.759 79.071 182.627 78.9254C182.399 78.6727 182.163 78.42 181.924 78.1755C181.668 77.9036 181.404 77.6344 181.138 77.3652C180.462 76.6922 179.77 76.0275 179.059 75.3792C178.811 75.1512 178.556 74.926 178.301 74.7062C178.16 74.5744 178.015 74.4535 177.864 74.3272C177.658 74.1486 177.452 73.9701 177.24 73.8025C177.111 73.6844 176.974 73.5718 176.839 73.4647C176.6 73.2641 176.361 73.0719 176.117 72.8796C175.999 72.7807 175.878 72.6873 175.757 72.5939C175.447 72.3494 175.128 72.105 174.809 71.8687C174.065 71.3111 173.307 70.7672 172.535 70.2371C172.145 69.9706 171.752 69.7124 171.359 69.4542C170.964 69.2015 170.565 68.9488 170.164 68.7016C174.103 63.2957 178.954 59.071 184.44 56.4945ZM85.143 64.5758C85.5358 61.8069 86.0605 59.104 86.717 56.4945C92.2025 59.071 97.0535 63.2957 100.993 68.7016C94.5621 72.6598 89.0271 77.7031 84.7173 83.5292C84.1184 77.5218 84.2201 71.0996 85.143 64.5758ZM81.1958 121.488C79.924 121.252 79.0862 120.03 79.3224 118.758C79.5587 117.486 80.7783 116.643 82.0501 116.882L91.2878 118.596C92.5596 118.832 93.4001 120.054 93.1639 121.326C93.0843 121.752 92.8947 122.131 92.631 122.436C92.1943 122.936 91.5515 123.241 90.8648 123.241C90.7219 123.241 90.5791 123.227 90.4335 123.2L88.9722 122.928L81.1958 121.488ZM93.933 131.22L87.6647 134.577C87.3131 134.767 86.934 134.857 86.5604 134.857C85.7254 134.857 84.9178 134.407 84.4948 133.618C83.885 132.479 84.3135 131.061 85.4534 130.449L91.2411 127.35L91.7218 127.092C92.3783 126.74 93.1255 126.732 93.76 127.009C94.227 127.21 94.6307 127.567 94.8917 128.051C95.5015 129.191 95.073 130.608 93.933 131.22ZM95.4823 114.36C91.6009 109.24 91.969 101.843 95.3339 96.5796C96.1992 95.2913 98.1248 92.3961 99.3883 92.9318C100.114 93.5663 100.064 94.882 100.182 96.7994C100.435 101.667 100.712 106.905 102.902 111.19C104.624 114.508 107.884 114.511 109.604 111.19C110.947 108.669 111.442 105.908 111.854 102.944C112.109 100.986 112.252 98.7249 112.334 96.6812C112.477 95.0304 112.411 92.6543 113.881 93.2998C118.806 97.2718 120.83 105.065 118.523 111.226L118.487 111.319C115.128 120.986 101.509 122.733 95.4823 114.36ZM153.12 130.569C151.593 132.023 149.002 133.877 145.316 134.467C141.072 135.146 137.622 133.77 135.578 132.599C133.911 133.553 131.307 134.646 128.096 134.646C127.373 134.646 126.618 134.588 125.841 134.467C122.154 133.877 119.564 132.023 118.04 130.569C117.103 129.679 117.064 128.196 117.96 127.259C118.85 126.323 120.333 126.284 121.27 127.18C122.121 127.993 123.948 129.421 126.582 129.839C128.181 130.094 129.64 129.902 130.854 129.545C132.461 129.075 133.095 127.139 132.09 125.798C131.546 125.073 131.065 124.309 130.667 123.68C129.321 121.398 127.651 118.2 131.359 117.503C133.639 116.964 137.504 116.964 139.787 117.503C142.108 117.975 142.525 119.417 141.594 121.516C141.05 122.678 140.177 124.375 139.108 125.793C138.097 127.133 138.718 129.086 140.333 129.553C141.542 129.905 142.989 130.091 144.577 129.839C147.206 129.421 149.033 127.993 149.89 127.18C150.826 126.284 152.304 126.323 153.2 127.259C154.09 128.196 154.057 129.679 153.12 130.569ZM152.669 111.319L152.634 111.226C150.326 105.065 152.351 97.2718 157.276 93.2998C158.746 92.6543 158.68 95.0304 158.822 96.6812C158.905 98.7249 159.048 100.986 159.303 102.944C159.715 105.908 160.21 108.669 161.553 111.19C163.272 114.511 166.533 114.508 168.255 111.19C170.445 106.905 170.722 101.667 170.975 96.7994C171.093 94.882 171.043 93.5663 171.769 92.9318C173.032 92.3961 174.958 95.2913 175.823 96.5796C179.188 101.843 179.556 109.24 175.675 114.36C169.648 122.733 156.029 120.986 152.669 111.319ZM185.703 130.449C186.843 131.061 187.272 132.479 186.662 133.618C186.239 134.407 185.431 134.857 184.596 134.857C184.223 134.857 183.844 134.767 183.492 134.577L177.224 131.22C176.084 130.608 175.655 129.191 176.265 128.051C176.526 127.567 176.93 127.21 177.397 127.009C178.031 126.732 178.778 126.74 179.435 127.092L179.916 127.35L185.703 130.449ZM182.185 122.928L180.723 123.2C180.578 123.227 180.435 123.241 180.292 123.241C179.605 123.241 178.963 122.936 178.526 122.436C178.262 122.131 178.073 121.752 177.993 121.326C177.757 120.054 178.597 118.832 179.869 118.596L189.107 116.882C190.379 116.643 191.598 117.486 191.834 118.758C192.071 120.03 191.233 121.252 189.961 121.488L182.185 122.928Z" fill="white"/>
</svg>
